<?xml version="1.0" encoding="UTF-8"?>
<svg xmlns="http://www.w3.org/2000/svg" version="1.1" viewBox="0 0 2000 2000">
  <defs>
    <style>
      .cls-1 {
        fill: #fff;
      }

      .cls-2 {
        fill: #05f;
      }

      .cls-3 {
        fill: #ff0049;
      }
    </style>
  </defs>
  <!-- Generator: Adobe Illustrator 28.7.10, SVG Export Plug-In . SVG Version: 1.2.0 Build 236)  -->
  <g>
    <g id="Layer_1">
      <g>
        <circle class="cls-3" cx="1000" cy="1000" r="839.78"/>
        <path class="cls-1" d="M1699.61,1276.59c-93.23-49.96-307.78-175.31-320.61-277.24-24.96-198.24-94.98-325.29-124.56-371.58-8.99-14.07-15.82-29.4-20.2-45.52-20.73-76.17-86.73-294.21-161.54-288.68-104.66,7.74-13.85,325.95-13.85,325.95,0,0-214.08-344.8-428.89-122.97l8.18,4.41c-78.74-11.4-160.5,5.14-229.53,79.54-39.05,42.09-77.68,130.49,51.01,145.96-96.17,63.75-120.25,181.42-63.55,214.34,104.82,60.86,181.54-105.93,298.31,14.16,90.26,92.82-12.64,185.86-74.23,174.78-99.19-17.85-141.8-236.04-227.39-121.74-103.79,138.59,144.71,481.08,511.64,468.1,16.95-.6,33.83,2.46,49.56,8.8l418.89,168.77c143.62-89.31,258.3-220.76,326.76-377.06Z"/>
        <g>
          <path class="cls-2" d="M844.91,729.18c-77.54-43.11-273.83-130.27-421.43-8.76-11.18,9.23-12.78,25.84-3.56,37.07,9.23,11.18,25.85,12.79,37.05,3.57,122.55-100.91,294.22-23.72,362.33,14.14,3.9,2.17,8.33,3.32,12.8,3.32,9.56,0,18.38-5.18,23.03-13.54,7.04-12.68,2.46-28.74-10.22-35.81Z"/>
          <path class="cls-2" d="M967.78,647.32c-92.56-95.11-207.19-153.72-340.7-174.22-6.92-1.08-13.85.6-19.51,4.73-5.71,4.16-9.45,10.31-10.52,17.29-1.07,6.96.63,13.91,4.8,19.59,4.16,5.66,10.28,9.37,17.23,10.44,121.94,18.72,226.56,72.18,310.98,158.91,4.93,5.05,11.8,7.95,18.86,7.95s13.43-2.65,18.37-7.47c10.4-10.13,10.62-26.84.5-37.23Z"/>
        </g>
      </g>
    </g>
  </g>
</svg>