<?xml version="1.0" encoding="UTF-8"?>
<svg xmlns="http://www.w3.org/2000/svg" version="1.1" viewBox="0 0 2000 500">
  <defs>
    <style>
      .cls-1 {
        fill: #fff;
      }

      .cls-2 {
        fill: #05f;
      }

      .cls-3 {
        fill: #ff0049;
      }
    </style>
  </defs>
  <!-- Generator: Adobe Illustrator 28.7.10, SVG Export Plug-In . SVG Version: 1.2.0 Build 236)  -->
  <g>
    <g id="Layer_1">
      <g>
        <circle class="cls-3" cx="273.31" cy="249.54" r="196.76"/>
        <path class="cls-1" d="M437.23,314.34c-21.84-11.7-72.11-41.08-75.12-64.96-5.85-46.45-22.25-76.21-29.18-87.06-2.11-3.3-3.71-6.89-4.73-10.66-4.86-17.85-20.32-68.93-37.85-67.64-24.52,1.81-3.25,76.37-3.25,76.37,0,0-50.16-80.79-100.49-28.81l1.92,1.03c-18.45-2.67-37.6,1.2-53.78,18.64-9.15,9.86-18.2,30.57,11.95,34.2-22.53,14.94-28.17,42.51-14.89,50.22,24.56,14.26,42.53-24.82,69.89,3.32,21.15,21.75-2.96,43.55-17.39,40.95-23.24-4.18-33.22-55.3-53.28-28.52-24.32,32.47,33.91,112.71,119.87,109.67,3.97-.14,7.93.58,11.61,2.06l98.14,39.54c33.65-20.92,60.52-51.72,76.56-88.34Z"/>
        <g>
          <path class="cls-2" d="M236.97,186.09c-18.17-10.1-64.16-30.52-98.74-2.05-2.62,2.16-3,6.05-.83,8.69,2.16,2.62,6.06,3,8.68.84,28.71-23.64,68.93-5.56,84.89,3.31.91.51,1.95.78,3,.78,2.24,0,4.31-1.21,5.4-3.17,1.65-2.97.58-6.73-2.39-8.39Z"/>
          <path class="cls-2" d="M265.76,166.9c-21.69-22.28-48.54-36.02-79.82-40.82-1.62-.25-3.24.14-4.57,1.11-1.34.98-2.21,2.41-2.47,4.05-.25,1.63.15,3.26,1.13,4.59.97,1.33,2.41,2.19,4.04,2.45,28.57,4.39,53.08,16.91,72.86,37.23,1.16,1.18,2.77,1.86,4.42,1.86s3.15-.62,4.3-1.75c2.44-2.37,2.49-6.29.12-8.72Z"/>
        </g>
      </g>
      <g>
        <path class="cls-2" d="M632.06,185.31c-1.71-1.16-4.55-1.74-8.52-1.74s-6.64.58-8.41,1.74c-1.78,1.16-2.91,2.67-3.39,4.51-.48,1.85-.72,3.93-.72,6.26v46.78h-64.84v-46.58c0-2.46-.21-4.62-.62-6.46-.41-1.85-1.47-3.35-3.18-4.51-1.71-1.16-4.55-1.74-8.52-1.74s-6.81.58-8.52,1.74c-1.71,1.16-2.81,2.67-3.28,4.51-.48,1.85-.72,3.93-.72,6.26v118.19c0,2.19.21,4.28.62,6.26.41,1.98,1.5,3.52,3.28,4.62,1.78,1.09,4.58,1.64,8.41,1.64s6.8-.55,8.52-1.64c1.71-1.09,2.8-2.6,3.28-4.51.48-1.91.72-3.97.72-6.16v-49.24h64.84v49.04c0,2.19.24,4.28.72,6.26.48,1.98,1.57,3.52,3.28,4.62,1.71,1.09,4.48,1.64,8.31,1.64s6.84-.55,8.62-1.64c1.78-1.09,2.9-2.6,3.39-4.51.48-1.91.72-3.97.72-6.16v-118.19c0-2.46-.24-4.62-.72-6.46-.48-1.85-1.57-3.35-3.28-4.51Z"/>
        <path class="cls-2" d="M750.87,227.57c-1.71-1.16-4.41-1.74-8.1-1.74-4.24,0-7.32.79-9.23,2.36-1.92,1.57-2.81,3.87-2.67,6.87l1.03,5.95c-1.78-2.46-4.04-4.82-6.77-7.08-2.74-2.26-6.05-4.14-9.95-5.64-3.9-1.5-8.59-2.26-14.06-2.26-6.43,0-12.45,1.33-18.06,4-5.61,2.67-10.64,6.33-15.08,10.98-4.45,4.65-7.9,9.95-10.36,15.9-2.46,5.95-3.69,12.28-3.69,18.98s1.23,13.51,3.69,19.59c2.46,6.09,5.88,11.49,10.26,16.21,4.38,4.72,9.4,8.41,15.08,11.08,5.67,2.67,11.73,4,18.16,4,6.02,0,11.11-.92,15.29-2.77,4.17-1.85,7.56-3.97,10.16-6.36,2.6-2.39,4.44-4.48,5.54-6.26l-1.44,6.77c.13,2.6,1.13,4.65,2.98,6.16,1.85,1.5,4.82,2.26,8.93,2.26,3.83,0,6.6-.55,8.31-1.64,1.71-1.09,2.77-2.6,3.18-4.51.41-1.91.62-4.03.62-6.36v-74.89c0-2.46-.21-4.72-.62-6.77-.41-2.05-1.47-3.66-3.18-4.82ZM726.14,289.75c-2.19,4.04-5.17,7.22-8.93,9.54-3.76,2.33-7.9,3.49-12.41,3.49-5.06,0-9.61-1.16-13.64-3.49-4.04-2.32-7.22-5.47-9.54-9.44-2.33-3.97-3.49-8.41-3.49-13.34s1.13-9.61,3.39-13.64c2.26-4.03,5.37-7.25,9.34-9.64,3.97-2.39,8.48-3.59,13.54-3.59,4.51,0,8.69,1.16,12.52,3.49,3.83,2.33,6.87,5.47,9.13,9.44,2.26,3.97,3.39,8.55,3.39,13.75,0,4.92-1.1,9.41-3.28,13.44Z"/>
        <path class="cls-2" d="M858.59,238.96c-3.63-4.24-7.97-7.52-13.03-9.85-5.06-2.32-10.81-3.49-17.24-3.49-3.42,0-6.74.51-9.95,1.54-3.22,1.03-6.19,2.4-8.93,4.1-2.74,1.71-5.06,3.59-6.98,5.64-1.92,2.05-3.28,4.17-4.1,6.36l.82-6.57c-.14-.68-.24-1.61-.31-2.77-.07-1.16-.38-2.39-.92-3.69-.55-1.3-1.64-2.36-3.28-3.18s-4.1-1.23-7.39-1.23c-3.83,0-6.6.51-8.31,1.54-1.71,1.03-2.81,2.43-3.28,4.21-.48,1.78-.72,3.76-.72,5.95v76.74c0,2.33.21,4.41.62,6.26s1.47,3.35,3.18,4.51c1.71,1.16,4.48,1.74,8.31,1.74s6.8-.55,8.52-1.64c1.71-1.09,2.77-2.56,3.18-4.41.41-1.85.62-3.93.62-6.26v-40.83c0-4.92.96-9.16,2.87-12.72,1.91-3.55,4.65-6.33,8.21-8.31,3.56-1.98,7.66-2.98,12.31-2.98,4.92,0,9.03.99,12.31,2.98,3.28,1.98,5.75,4.75,7.39,8.31,1.64,3.56,2.46,7.8,2.46,12.72v40.63c0,2.33.24,4.41.72,6.26.48,1.85,1.57,3.35,3.28,4.51,1.71,1.16,4.55,1.74,8.52,1.74s6.77-.55,8.41-1.64c1.64-1.09,2.7-2.56,3.18-4.41.48-1.85.72-3.93.72-6.26v-40.83c0-7.11-.96-13.61-2.87-19.49-1.92-5.88-4.69-10.94-8.31-15.18Z"/>
        <path class="cls-2" d="M982.72,181.31c-1.71-1.09-4.48-1.64-8.31-1.64s-6.57.58-8.21,1.74c-1.64,1.16-2.64,2.7-2.98,4.62-.34,1.92-.51,4.04-.51,6.36v46.29c-3.31-3.72-7.21-6.7-11.7-8.95-5.2-2.6-11.15-3.9-17.85-3.9-6.16,0-12.04,1.3-17.65,3.9-5.61,2.6-10.57,6.19-14.88,10.77-4.31,4.58-7.69,9.92-10.16,16-2.46,6.09-3.69,12.55-3.69,19.39s1.23,13.78,3.69,20.01c2.46,6.23,5.85,11.63,10.16,16.21,4.31,4.58,9.27,8.18,14.88,10.77,5.61,2.6,11.49,3.9,17.65,3.9,6.84,0,12.86-1.33,18.06-4,4.39-2.26,8.22-5.23,11.49-8.9v4.69c.41,2.87,1.54,4.96,3.39,6.26s4.68,1.95,8.52,1.95,6.57-.55,8.21-1.64c1.64-1.09,2.7-2.6,3.18-4.51.48-1.91.72-4.03.72-6.36v-122.08c0-2.32-.24-4.44-.72-6.36-.48-1.91-1.57-3.42-3.28-4.51ZM958.31,290.05c-2.26,3.97-5.27,7.08-9.03,9.33-3.76,2.26-7.97,3.39-12.62,3.39s-8.93-1.13-12.82-3.39c-3.9-2.26-6.98-5.37-9.23-9.33-2.26-3.97-3.39-8.48-3.39-13.54s1.13-9.78,3.39-13.75c2.26-3.97,5.3-7.08,9.13-9.34,3.83-2.26,8.07-3.39,12.72-3.39s9.1,1.13,12.93,3.39c3.83,2.26,6.84,5.37,9.03,9.34,2.19,3.97,3.28,8.55,3.28,13.75s-1.13,9.58-3.39,13.54Z"/>
        <path class="cls-2" d="M1122.96,185.41c-1.78-1.23-4.51-1.85-8.21-1.85s-6.64.58-8.41,1.74c-1.78,1.16-2.94,2.6-3.49,4.31-.55,1.71-.82,3.66-.82,5.85v89.05l-68.33-95.62c-1.37-1.78-2.84-3.11-4.41-4-1.57-.89-4.41-1.33-8.52-1.33-3.83,0-6.67.58-8.51,1.74-1.85,1.16-3.05,2.6-3.59,4.31-.55,1.71-.82,3.66-.82,5.85v118.8c0,2.19.27,4.24.82,6.16.54,1.92,1.67,3.46,3.39,4.62,1.71,1.16,4.41,1.74,8.1,1.74s6.63-.58,8.41-1.74c1.78-1.16,2.9-2.67,3.38-4.51.48-1.85.72-3.86.72-6.05v-87.61l69.35,95.62c1.37,1.78,2.94,2.94,4.72,3.49,1.78.54,4.17.82,7.18.82,3.83,0,6.67-.58,8.51-1.74s3.08-2.67,3.69-4.51c.62-1.85.92-3.86.92-6.05v-118.19c0-2.19-.24-4.24-.72-6.16-.48-1.91-1.61-3.49-3.38-4.72Z"/>
        <path class="cls-2" d="M1242.89,227.57c-1.71-1.16-4.41-1.74-8.11-1.74-4.24,0-7.32.79-9.23,2.36-1.92,1.57-2.8,3.87-2.67,6.87l1.03,5.95c-1.78-2.46-4.04-4.82-6.77-7.08-2.74-2.26-6.05-4.14-9.95-5.64-3.9-1.5-8.59-2.26-14.06-2.26-6.43,0-12.45,1.33-18.06,4-5.61,2.67-10.64,6.33-15.08,10.98-4.45,4.65-7.9,9.95-10.36,15.9-2.46,5.95-3.69,12.28-3.69,18.98s1.23,13.51,3.69,19.59c2.46,6.09,5.88,11.49,10.26,16.21,4.38,4.72,9.4,8.41,15.08,11.08,5.67,2.67,11.73,4,18.16,4,6.02,0,11.11-.92,15.29-2.77,4.17-1.85,7.56-3.97,10.16-6.36,2.6-2.39,4.44-4.48,5.54-6.26l-1.44,6.77c.13,2.6,1.13,4.65,2.97,6.16,1.85,1.5,4.82,2.26,8.93,2.26,3.83,0,6.6-.55,8.31-1.64,1.71-1.09,2.77-2.6,3.18-4.51.41-1.91.62-4.03.62-6.36v-74.89c0-2.46-.21-4.72-.62-6.77s-1.47-3.66-3.18-4.82ZM1218.17,289.75c-2.19,4.04-5.17,7.22-8.93,9.54-3.76,2.33-7.9,3.49-12.41,3.49-5.06,0-9.61-1.16-13.64-3.49-4.04-2.32-7.22-5.47-9.54-9.44-2.33-3.97-3.49-8.41-3.49-13.34s1.13-9.61,3.39-13.64c2.26-4.03,5.37-7.25,9.34-9.64,3.97-2.39,8.48-3.59,13.54-3.59,4.51,0,8.68,1.16,12.52,3.49,3.83,2.33,6.87,5.47,9.13,9.44,2.26,3.97,3.39,8.55,3.39,13.75,0,4.92-1.1,9.41-3.28,13.44Z"/>
        <path class="cls-2" d="M1356.46,226.65c-4.65-2.32-8.21-2.9-10.67-1.74-2.46,1.16-4.72,4-6.77,8.52l-26.26,61.76-26.88-62.99c-1.92-4.38-4.1-6.91-6.57-7.59-2.46-.68-5.75,0-9.85,2.05-4.1,1.92-6.6,4.14-7.49,6.67-.89,2.53-.38,5.85,1.54,9.95l37.55,77.97c1.09,2.19,2.6,3.8,4.51,4.82,1.91,1.03,4.31,1.54,7.18,1.54s5.26-.55,7.18-1.64c1.91-1.09,3.42-2.67,4.51-4.72l37.14-77.15c1.78-3.56,2.53-6.77,2.26-9.64-.28-2.87-2.74-5.47-7.39-7.8Z"/>
        <path class="cls-2" d="M1401.7,227.68c-1.71-1.09-4.48-1.64-8.31-1.64s-6.64.55-8.41,1.64c-1.78,1.1-2.87,2.56-3.28,4.41-.41,1.85-.62,3.93-.62,6.26v76.12c0,2.33.21,4.41.62,6.26.41,1.85,1.47,3.35,3.18,4.51,1.71,1.16,4.48,1.74,8.31,1.74s6.8-.55,8.51-1.64c1.71-1.09,2.77-2.56,3.18-4.41s.62-3.93.62-6.26v-75.92c0-2.46-.21-4.65-.62-6.57-.41-1.91-1.47-3.42-3.18-4.51Z"/>
        <path class="cls-2" d="M1402.22,181.51c-1.78-1.23-4.72-1.85-8.82-1.85s-7.08.58-8.93,1.74c-1.85,1.16-3.05,2.74-3.59,4.72-.55,1.98-.82,4.21-.82,6.67s.24,4.72.72,6.77c.48,2.05,1.64,3.69,3.49,4.92,1.85,1.23,4.82,1.85,8.93,1.85s7.25-.58,9.03-1.74c1.78-1.16,2.94-2.73,3.49-4.72.54-1.98.82-4.21.82-6.67s-.28-4.72-.82-6.77c-.55-2.05-1.71-3.69-3.49-4.92Z"/>
        <path class="cls-2" d="M1516.91,227.16c-1.64-1.03-4.31-1.54-8-1.54-4.1,0-7.11.65-9.03,1.95-1.92,1.3-3.01,3.52-3.28,6.67v5.14c-3.01-4.18-6.74-7.44-11.18-9.76-4.58-2.39-9.88-3.59-15.9-3.59s-12.21,1.27-17.75,3.8c-5.54,2.53-10.43,6.05-14.67,10.57-4.24,4.51-7.53,9.71-9.85,15.59-2.33,5.88-3.49,12.24-3.49,19.08s1.16,13.44,3.49,19.39c2.32,5.95,5.61,11.18,9.85,15.7,4.24,4.51,9.13,8,14.67,10.46,5.54,2.46,11.52,3.69,17.95,3.69,8.07,0,14.8-1.98,20.21-5.95,2.6-1.91,4.88-4.23,6.85-6.94l.02,7.76c0,4.1-.58,7.8-1.74,11.08-1.16,3.28-2.84,6.12-5.03,8.51-2.19,2.39-4.75,4.21-7.7,5.44-2.94,1.23-6.26,1.85-9.95,1.85-4.1,0-7.52-.55-10.26-1.64-2.74-1.1-5.06-2.33-6.98-3.69-1.92-1.37-3.59-2.6-5.03-3.69-1.44-1.1-2.91-1.64-4.41-1.64-1.78,0-3.22.41-4.31,1.23-1.1.82-2.46,2.05-4.1,3.69-1.23,1.37-2.15,2.74-2.77,4.1-.62,1.37-.92,3.01-.92,4.92s1.06,4,3.18,6.26c2.12,2.26,4.99,4.34,8.62,6.26,3.62,1.91,7.73,3.45,12.31,4.62,4.58,1.16,9.27,1.74,14.06,1.74,6.57,0,12.75-1.06,18.57-3.18,5.81-2.12,11.01-5.23,15.59-9.34,4.58-4.1,8.17-9.1,10.77-14.98,2.6-5.88,3.9-12.59,3.9-20.11v-82.89c0-2.32-.21-4.41-.62-6.26-.41-1.85-1.44-3.28-3.08-4.31ZM1492.91,288.41c-2.19,3.97-5.1,7.08-8.72,9.34-3.63,2.26-7.69,3.38-12.21,3.38s-8.79-1.13-12.41-3.38c-3.63-2.26-6.5-5.33-8.62-9.23-2.12-3.9-3.18-8.38-3.18-13.44s1.03-9.34,3.08-13.23,4.89-6.94,8.51-9.13c3.62-2.19,7.69-3.28,12.21-3.28s8.82,1.1,12.52,3.28c3.69,2.19,6.63,5.2,8.82,9.03,2.19,3.83,3.28,8.28,3.28,13.34s-1.1,9.37-3.28,13.34Z"/>
        <path class="cls-2" d="M1634.79,227.57c-1.71-1.16-4.41-1.74-8.11-1.74-4.24,0-7.32.79-9.23,2.36-1.92,1.57-2.8,3.87-2.67,6.87l1.03,5.95c-1.78-2.46-4.04-4.82-6.77-7.08-2.74-2.26-6.05-4.14-9.95-5.64-3.9-1.5-8.59-2.26-14.06-2.26-6.43,0-12.45,1.33-18.06,4-5.61,2.67-10.64,6.33-15.08,10.98-4.45,4.65-7.9,9.95-10.36,15.9-2.46,5.95-3.69,12.28-3.69,18.98s1.23,13.51,3.69,19.59c2.46,6.09,5.88,11.49,10.26,16.21,4.38,4.72,9.4,8.41,15.08,11.08,5.67,2.67,11.73,4,18.16,4,6.02,0,11.11-.92,15.29-2.77,4.17-1.85,7.56-3.97,10.16-6.36,2.6-2.39,4.44-4.48,5.54-6.26l-1.44,6.77c.13,2.6,1.13,4.65,2.97,6.16,1.85,1.5,4.82,2.26,8.93,2.26,3.83,0,6.6-.55,8.31-1.64,1.71-1.09,2.77-2.6,3.18-4.51.41-1.91.62-4.03.62-6.36v-74.89c0-2.46-.21-4.72-.62-6.77s-1.47-3.66-3.18-4.82ZM1610.07,289.75c-2.19,4.04-5.17,7.22-8.93,9.54-3.76,2.33-7.9,3.49-12.41,3.49-5.06,0-9.61-1.16-13.64-3.49-4.04-2.32-7.22-5.47-9.54-9.44-2.33-3.97-3.49-8.41-3.49-13.34s1.13-9.61,3.39-13.64c2.26-4.03,5.37-7.25,9.34-9.64,3.97-2.39,8.48-3.59,13.54-3.59,4.51,0,8.68,1.16,12.52,3.49,3.83,2.33,6.87,5.47,9.13,9.44,2.26,3.97,3.39,8.55,3.39,13.75,0,4.92-1.1,9.41-3.28,13.44Z"/>
        <path class="cls-2" d="M1718.3,227.98c-1.85-.48-3.93-.72-6.26-.72l-16.62.48v-23.46c0-2.32-.24-4.41-.72-6.26-.48-1.85-1.57-3.32-3.28-4.41-1.71-1.09-4.48-1.64-8.31-1.64s-6.6.51-8.31,1.54c-1.71,1.03-2.77,2.46-3.18,4.31-.41,1.85-.62,3.93-.62,6.26v23.88l-8.41-.08c-3.42,0-5.92.92-7.49,2.77-1.57,1.85-2.36,4.82-2.36,8.93s.65,7.25,1.95,9.03c1.3,1.78,3.73,2.74,7.28,2.87l9.03-.08v39.68c0,6.29.68,11.73,2.05,16.31,1.37,4.58,3.59,8.31,6.67,11.18,3.08,2.87,7.01,4.99,11.8,6.36,4.79,1.37,10.53,2.05,17.24,2.05,2.19,0,4.21-.21,6.05-.62s3.35-1.47,4.51-3.18c1.16-1.71,1.74-4.48,1.74-8.31,0-3.56-.48-6.12-1.44-7.69-.96-1.57-2.36-2.57-4.21-2.98s-4.07-.62-6.67-.62c-2.46,0-4.55-.17-6.26-.51-1.71-.34-3.08-.96-4.1-1.85-1.03-.89-1.78-2.22-2.26-4-.48-1.78-.72-4.1-.72-6.98v-38.75l16.83.38c2.32,0,4.38-.27,6.16-.82,1.78-.54,3.21-1.67,4.31-3.39,1.09-1.71,1.64-4.41,1.64-8.1s-.55-6.6-1.64-8.31c-1.1-1.71-2.56-2.8-4.41-3.28Z"/>
        <path class="cls-2" d="M1812.58,231.27c-7.8-4.58-16.55-6.87-26.26-6.87-7.11,0-13.78,1.33-20,4-6.23,2.67-11.73,6.4-16.52,11.18-4.79,4.79-8.52,10.33-11.18,16.62-2.67,6.29-4,13.06-4,20.31s1.44,14.47,4.31,20.83c2.87,6.36,6.8,11.83,11.8,16.42,4.99,4.58,10.63,8.18,16.93,10.77,6.29,2.6,12.65,3.9,19.08,3.9s12.72-1.23,18.88-3.69c6.16-2.46,11.7-5.98,16.62-10.57,4.92-4.58,8.82-10.09,11.7-16.52,2.87-6.43,4.31-13.54,4.31-21.34,0-9.85-2.33-18.67-6.98-26.47-4.65-7.8-10.88-13.98-18.67-18.57ZM1809.6,290.87c-2.67,4.24-6.09,7.49-10.26,9.75-4.17,2.26-8.51,3.39-13.03,3.39s-8.86-1.13-13.03-3.39c-4.17-2.26-7.56-5.47-10.16-9.64-2.6-4.17-3.9-9.13-3.9-14.88,0-5.2,1.2-9.85,3.59-13.95,2.39-4.1,5.64-7.35,9.75-9.75,4.1-2.39,8.62-3.59,13.54-3.59,5.33,0,10.09,1.13,14.26,3.39,4.17,2.26,7.42,5.44,9.75,9.54,2.32,4.1,3.49,8.82,3.49,14.16,0,5.75-1.33,10.74-4,14.98Z"/>
        <path class="cls-2" d="M1921.94,232.29c-.82-1.3-1.98-2.43-3.49-3.39-1.51-.96-3.18-1.74-5.03-2.36-1.85-.62-3.69-1.09-5.54-1.44-1.85-.34-3.59-.51-5.23-.51-3.97,0-7.39.51-10.26,1.54-2.87,1.03-5.33,2.33-7.39,3.9-2.05,1.57-3.69,3.15-4.92,4.72-1.23,1.57-2.19,2.91-2.87,4l1.64-3.69c0-1.23-.24-2.6-.72-4.1-.48-1.5-1.57-2.73-3.28-3.69-1.71-.96-4.41-1.44-8.1-1.44s-6.6.51-8.31,1.54c-1.71,1.03-2.81,2.5-3.28,4.41-.48,1.92-.72,4.04-.72,6.36v76.12c0,2.33.21,4.45.62,6.36.41,1.92,1.47,3.46,3.18,4.62,1.71,1.16,4.48,1.74,8.31,1.74s6.84-.55,8.62-1.64c1.78-1.09,2.87-2.56,3.28-4.41.41-1.85.62-3.93.62-6.26v-49.86c0-2.73.54-5.13,1.64-7.18,1.09-2.05,2.53-3.76,4.31-5.13,1.78-1.37,3.73-2.39,5.85-3.08,2.12-.68,4.21-1.03,6.26-1.03,2.46,0,4.27.21,5.44.62,1.16.41,2.05.86,2.67,1.33.62.48,1.4.92,2.36,1.33.96.41,2.46.62,4.51.62,3.01,0,5.61-1.5,7.8-4.51,2.19-3.01,3.28-6.7,3.28-11.08,0-1.64-.41-3.11-1.23-4.41Z"/>
      </g>
    </g>
  </g>
</svg>